# xmcd CD database file
#
# Track frame offsets:
#	150
#	27131
#	52676
#	73751
#	93623
#	109570
#	145985
#	169417
#	187570
#	219366
#	240976
#	266242
#
# Disc length: 3852 seconds
#
# Revision: 0
# Processed by: cddbd v1.5.2PL0 Copyright (c) Steve Scherf et al.
# Submitted via: CDex 1.51
#
DISCID=9e0f0a0c
DTITLE=SFJazz Collective - 4th annual concert tour - disk I
DYEAR=2007
DGENRE=Jazz
TTITLE0=Brilliant Corners
TTITLE1=Epistrophy
TTITLE2=Crepuscule with Nellie
TTITLE3=Criss Cross
TTITLE4=Bye-Ya
TTITLE5=I Mean You
TTITLE6=Ugly Beauty
TTITLE7=San Francisco Holliday - Worry Later
TTITLE8=Oska T
TTITLE9=Reflections
TTITLE10=Hornin' In
TTITLE11=Bright Mississippi
EXTD=YEAR: 2007
EXTT0=
EXTT1=
EXTT2=
EXTT3=
EXTT4=
EXTT5=
EXTT6=
EXTT7=
EXTT8=
EXTT9=
EXTT10=
EXTT11=
PLAYORDER=
